<svg width="26" height="26" viewBox="0 0 26 26" fill="none" xmlns="http://www.w3.org/2000/svg">
<path fill-rule="evenodd" clip-rule="evenodd" d="M10.2147 9.71641H14.2382V11.7206C14.8178 10.5679 16.3042 9.53224 18.5369 9.53224C22.8172 9.53224 23.8333 11.8267 23.8333 16.0366V23.8333H19.5V16.9953C19.5 14.5979 18.9204 13.2459 17.4449 13.2459C15.3985 13.2459 14.5481 14.703 14.5481 16.9942V23.8333H10.2147V9.71641V9.71641ZM2.78416 23.6492H7.1175V9.53224H2.78416V23.6492V23.6492ZM7.73825 4.92916C7.73841 5.29237 7.66637 5.65199 7.52633 5.98713C7.38629 6.32226 7.18104 6.62621 6.9225 6.88132C6.3986 7.402 5.68946 7.69345 4.95083 7.69166C4.2135 7.69116 3.506 7.40046 2.98133 6.88241C2.72373 6.62643 2.51917 6.32213 2.37937 5.98696C2.23957 5.65178 2.16729 5.29232 2.16666 4.92916C2.16666 4.19574 2.45916 3.49374 2.98241 2.97591C3.50662 2.45716 4.21442 2.16633 4.95191 2.16666C5.69075 2.16666 6.39925 2.45807 6.9225 2.97591C7.44466 3.49374 7.73825 4.19574 7.73825 4.92916Z" fill="#04B69A"/>
</svg>
